<svg width="255" height="137" viewBox="0 0 255 137" fill="none" xmlns="http://www.w3.org/2000/svg">
<rect width="255" height="137" fill="#F2F2F2"/>
<g id="Desktop - Suggestions">
<rect width="1440" height="1325" transform="translate(-165 -94)" fill="#F7F8FD"/>
<g id="Group 22">
<g id="Group 21">
<g id="Oval">
<rect id="Mask" width="255" height="137" rx="10" fill="url(#paint0_radial_0_1)"/>
<mask id="mask0_0_1" style="mask-type:luminance" maskUnits="userSpaceOnUse" x="0" y="0" width="255" height="137">
<rect id="Mask_2" width="255" height="137" rx="10" fill="white"/>
</mask>
<g mask="url(#mask0_0_1)">
<g id="Oval_2" opacity="0.765433" filter="url(#filter0_f_0_1)">
<circle cx="-0.5" cy="-40.5" r="96" fill="#7AD8FB"/>
</g>
<g id="Oval Copy" filter="url(#filter1_f_0_1)">
<circle cx="304.5" cy="137.5" r="96" fill="#FBB57A"/>
</g>
</g>
</g>
<g id="Group 2" clip-path="url(#clip0_0_1)">
<path id="Frontend Mentor" d="M25.48 69H33.98V71.92H28.74V74.66H33.78V77.38H28.74V83H25.48V69ZM41.2341 76.94C41.0741 76.78 40.9007 76.6533 40.7141 76.56C40.5407 76.4667 40.3207 76.42 40.0541 76.42C39.6141 76.42 39.2541 76.5933 38.9741 76.94C38.7074 77.2867 38.5741 77.7933 38.5741 78.46V83H35.5941V73.8H38.5741V74.96C38.8674 74.5333 39.2141 74.2 39.6141 73.96C40.0274 73.7067 40.4541 73.58 40.8941 73.58C41.2274 73.58 41.5474 73.6533 41.8541 73.8C42.1607 73.9333 42.3941 74.1133 42.5541 74.34L41.2341 76.94ZM42.7338 78.4C42.7338 77.4267 42.9604 76.58 43.4137 75.86C43.8804 75.14 44.5071 74.58 45.2938 74.18C46.0938 73.78 46.9938 73.58 47.9938 73.58C49.0071 73.58 49.9071 73.78 50.6938 74.18C51.4804 74.58 52.1004 75.14 52.5538 75.86C53.0204 76.58 53.2538 77.4267 53.2538 78.4C53.2538 79.36 53.0204 80.2 52.5538 80.92C52.1004 81.64 51.4804 82.2 50.6938 82.6C49.9071 83 49.0071 83.2 47.9938 83.2C46.9938 83.2 46.0938 83 45.2938 82.6C44.5071 82.2 43.8804 81.64 43.4137 80.92C42.9604 80.2 42.7338 79.36 42.7338 78.4ZM45.8538 78.4C45.8538 79.1067 46.0604 79.6667 46.4738 80.08C46.9004 80.4933 47.4071 80.7 47.9938 80.7C48.5804 80.7 49.0804 80.4933 49.4938 80.08C49.9204 79.6667 50.1338 79.1067 50.1338 78.4C50.1338 77.6933 49.9204 77.1333 49.4938 76.72C49.0804 76.2933 48.5804 76.08 47.9938 76.08C47.4071 76.08 46.9004 76.2933 46.4738 76.72C46.0604 77.1333 45.8538 77.6933 45.8538 78.4ZM60.7811 77.4C60.7811 76.8533 60.6811 76.44 60.4811 76.16C60.2811 75.8667 59.9344 75.72 59.4411 75.72C58.9611 75.72 58.5744 75.8667 58.2811 76.16C57.9878 76.44 57.8411 76.8533 57.8411 77.4V83H54.8011V73.8H57.8411V75.18C58.1078 74.6733 58.4678 74.28 58.9211 74C59.3878 73.72 59.9611 73.58 60.6411 73.58C61.7878 73.58 62.6211 73.8867 63.1411 74.5C63.6744 75.1133 63.9411 75.9733 63.9411 77.08V83H60.7811V77.4ZM64.975 73.8H66.595V70.6H69.515V73.8H71.135V76.3H69.515V83H66.595V76.3H64.975V73.8ZM76.8722 83.2C75.7922 83.2 74.8589 83.0067 74.0722 82.62C73.2989 82.22 72.6989 81.66 72.2722 80.94C71.8455 80.22 71.6322 79.3733 71.6322 78.4C71.6322 76.9067 72.0922 75.7333 73.0122 74.88C73.9322 74.0267 75.1989 73.6 76.8122 73.6C78.3989 73.6 79.6189 74.0067 80.4722 74.82C81.3389 75.6333 81.7722 76.78 81.7722 78.26C81.7722 78.4067 81.7722 78.5467 81.7722 78.68C81.7722 78.8133 81.7655 78.9333 81.7522 79.04H74.7322C74.8122 79.6667 75.0322 80.1533 75.3922 80.5C75.7522 80.8467 76.2255 81.02 76.8122 81.02C77.8789 81.02 78.6389 80.62 79.0922 79.82L81.8122 80.48C80.8389 82.2933 79.1922 83.2 76.8722 83.2ZM76.7522 75.62C75.6589 75.62 74.9989 76.2 74.7722 77.36H78.5322C78.4789 76.8267 78.2922 76.4067 77.9722 76.1C77.6655 75.78 77.2589 75.62 76.7522 75.62ZM89.367 77.4C89.367 76.8533 89.267 76.44 89.067 76.16C88.867 75.8667 88.5204 75.72 88.027 75.72C87.547 75.72 87.1604 75.8667 86.867 76.16C86.5737 76.44 86.427 76.8533 86.427 77.4V83H83.387V73.8H86.427V75.18C86.6937 74.6733 87.0537 74.28 87.507 74C87.9737 73.72 88.547 73.58 89.227 73.58C90.3737 73.58 91.207 73.8867 91.727 74.5C92.2604 75.1133 92.527 75.9733 92.527 77.08V83H89.367V77.4ZM94.1009 78.4C94.1009 77.36 94.3076 76.4867 94.7209 75.78C95.1343 75.06 95.6743 74.52 96.3409 74.16C97.0076 73.7867 97.7143 73.6 98.4609 73.6C99.8209 73.6 100.874 74.16 101.621 75.28V67.4H104.641V83H101.621V81.52C100.874 82.64 99.8209 83.2 98.4609 83.2C97.7143 83.2 97.0076 83.02 96.3409 82.66C95.6743 82.2867 95.1343 81.74 94.7209 81.02C94.3076 80.3 94.1009 79.4267 94.1009 78.4ZM97.2809 78.4C97.2809 79.12 97.4943 79.6933 97.9209 80.12C98.3609 80.5467 98.8809 80.76 99.4809 80.76C99.8276 80.76 100.161 80.6667 100.481 80.48C100.814 80.2933 101.088 80.0267 101.301 79.68C101.514 79.32 101.621 78.8933 101.621 78.4C101.621 77.8933 101.514 77.4667 101.301 77.12C101.088 76.7733 100.814 76.5067 100.481 76.32C100.161 76.1333 99.8276 76.04 99.4809 76.04C98.8809 76.04 98.3609 76.2533 97.9209 76.68C97.4943 77.1067 97.2809 77.68 97.2809 78.4ZM116.381 75.88L115.521 83H111.961L114.221 68.3L120.201 76.82L126.161 68.3L128.441 83H124.861L124.021 75.88L120.201 81.7L116.381 75.88ZM134.724 83.2C133.644 83.2 132.71 83.0067 131.924 82.62C131.15 82.22 130.55 81.66 130.124 80.94C129.697 80.22 129.484 79.3733 129.484 78.4C129.484 76.9067 129.944 75.7333 130.864 74.88C131.784 74.0267 133.05 73.6 134.664 73.6C136.25 73.6 137.47 74.0067 138.324 74.82C139.19 75.6333 139.624 76.78 139.624 78.26C139.624 78.4067 139.624 78.5467 139.624 78.68C139.624 78.8133 139.617 78.9333 139.604 79.04H132.584C132.664 79.6667 132.884 80.1533 133.244 80.5C133.604 80.8467 134.077 81.02 134.664 81.02C135.73 81.02 136.49 80.62 136.944 79.82L139.664 80.48C138.69 82.2933 137.044 83.2 134.724 83.2ZM134.604 75.62C133.51 75.62 132.85 76.2 132.624 77.36H136.384C136.33 76.8267 136.144 76.4067 135.824 76.1C135.517 75.78 135.11 75.62 134.604 75.62ZM147.219 77.4C147.219 76.8533 147.119 76.44 146.919 76.16C146.719 75.8667 146.372 75.72 145.879 75.72C145.399 75.72 145.012 75.8667 144.719 76.16C144.425 76.44 144.279 76.8533 144.279 77.4V83H141.239V73.8H144.279V75.18C144.545 74.6733 144.905 74.28 145.359 74C145.825 73.72 146.399 73.58 147.079 73.58C148.225 73.58 149.059 73.8867 149.579 74.5C150.112 75.1133 150.379 75.9733 150.379 77.08V83H147.219V77.4ZM151.413 73.8H153.033V70.6H155.953V73.8H157.573V76.3H155.953V83H153.033V76.3H151.413V73.8ZM158.07 78.4C158.07 77.4267 158.296 76.58 158.75 75.86C159.216 75.14 159.843 74.58 160.63 74.18C161.43 73.78 162.33 73.58 163.33 73.58C164.343 73.58 165.243 73.78 166.03 74.18C166.816 74.58 167.436 75.14 167.89 75.86C168.356 76.58 168.59 77.4267 168.59 78.4C168.59 79.36 168.356 80.2 167.89 80.92C167.436 81.64 166.816 82.2 166.03 82.6C165.243 83 164.343 83.2 163.33 83.2C162.33 83.2 161.43 83 160.63 82.6C159.843 82.2 159.216 81.64 158.75 80.92C158.296 80.2 158.07 79.36 158.07 78.4ZM161.19 78.4C161.19 79.1067 161.396 79.6667 161.81 80.08C162.236 80.4933 162.743 80.7 163.33 80.7C163.916 80.7 164.416 80.4933 164.83 80.08C165.256 79.6667 165.47 79.1067 165.47 78.4C165.47 77.6933 165.256 77.1333 164.83 76.72C164.416 76.2933 163.916 76.08 163.33 76.08C162.743 76.08 162.236 76.2933 161.81 76.72C161.396 77.1333 161.19 77.6933 161.19 78.4ZM175.777 76.94C175.617 76.78 175.444 76.6533 175.257 76.56C175.084 76.4667 174.864 76.42 174.597 76.42C174.157 76.42 173.797 76.5933 173.517 76.94C173.25 77.2867 173.117 77.7933 173.117 78.46V83H170.137V73.8H173.117V74.96C173.41 74.5333 173.757 74.2 174.157 73.96C174.57 73.7067 174.997 73.58 175.437 73.58C175.77 73.58 176.09 73.6533 176.397 73.8C176.704 73.9333 176.937 74.1133 177.097 74.34L175.777 76.94Z" fill="white"/>
<path id="Feedback Board" opacity="0.75" d="M25.17 96.5H30.96V98.09H26.91V100.715H30.81V102.26H26.91V107H25.17V96.5ZM35.4032 107.15C34.6932 107.15 34.0732 107 33.5432 106.7C33.0132 106.4 32.6032 105.98 32.3132 105.44C32.0232 104.9 31.8782 104.27 31.8782 103.55C31.8782 102.82 32.0232 102.19 32.3132 101.66C32.6132 101.12 33.0332 100.7 33.5732 100.4C34.1132 100.1 34.7482 99.95 35.4782 99.95C36.5682 99.95 37.4132 100.265 38.0132 100.895C38.6232 101.515 38.9282 102.375 38.9282 103.475C38.9282 103.565 38.9232 103.655 38.9132 103.745C38.9132 103.825 38.9132 103.885 38.9132 103.925H33.5432C33.6032 104.525 33.7982 104.99 34.1282 105.32C34.4682 105.65 34.9182 105.815 35.4782 105.815C36.3582 105.815 37.0182 105.45 37.4582 104.72L38.8682 105.275C38.1482 106.525 36.9932 107.15 35.4032 107.15ZM35.4632 101.18C34.4132 101.18 33.7882 101.72 33.5882 102.8H37.1582C37.1282 102.31 36.9582 101.92 36.6482 101.63C36.3382 101.33 35.9432 101.18 35.4632 101.18ZM43.4745 107.15C42.7645 107.15 42.1445 107 41.6145 106.7C41.0845 106.4 40.6745 105.98 40.3845 105.44C40.0945 104.9 39.9495 104.27 39.9495 103.55C39.9495 102.82 40.0945 102.19 40.3845 101.66C40.6845 101.12 41.1045 100.7 41.6445 100.4C42.1845 100.1 42.8195 99.95 43.5495 99.95C44.6395 99.95 45.4845 100.265 46.0845 100.895C46.6945 101.515 46.9995 102.375 46.9995 103.475C46.9995 103.565 46.9945 103.655 46.9845 103.745C46.9845 103.825 46.9845 103.885 46.9845 103.925H41.6145C41.6745 104.525 41.8695 104.99 42.1995 105.32C42.5395 105.65 42.9895 105.815 43.5495 105.815C44.4295 105.815 45.0895 105.45 45.5295 104.72L46.9395 105.275C46.2195 106.525 45.0645 107.15 43.4745 107.15ZM43.5345 101.18C42.4845 101.18 41.8595 101.72 41.6595 102.8H45.2295C45.1995 102.31 45.0295 101.92 44.7195 101.63C44.4095 101.33 44.0145 101.18 43.5345 101.18ZM48.0207 103.55C48.0207 102.79 48.1757 102.145 48.4857 101.615C48.7957 101.075 49.2057 100.665 49.7157 100.385C50.2257 100.095 50.7807 99.95 51.3807 99.95C52.4107 99.95 53.1957 100.38 53.7357 101.24V95.3H55.3707V107H53.7357V105.86C53.1957 106.72 52.4107 107.15 51.3807 107.15C50.7807 107.15 50.2257 107.01 49.7157 106.73C49.2057 106.44 48.7957 106.025 48.4857 105.485C48.1757 104.945 48.0207 104.3 48.0207 103.55ZM49.7007 103.55C49.7007 104.24 49.9057 104.78 50.3157 105.17C50.7257 105.55 51.2107 105.74 51.7707 105.74C52.0807 105.74 52.3857 105.655 52.6857 105.485C52.9857 105.315 53.2357 105.07 53.4357 104.75C53.6357 104.42 53.7357 104.02 53.7357 103.55C53.7357 103.08 53.6357 102.685 53.4357 102.365C53.2357 102.035 52.9857 101.785 52.6857 101.615C52.3857 101.445 52.0807 101.36 51.7707 101.36C51.2107 101.36 50.7257 101.555 50.3157 101.945C49.9057 102.325 49.7007 102.86 49.7007 103.55ZM64.6541 103.55C64.6541 104.3 64.4991 104.945 64.1891 105.485C63.8791 106.025 63.4691 106.44 62.9591 106.73C62.4491 107.01 61.8941 107.15 61.2941 107.15C60.2641 107.15 59.4791 106.72 58.9391 105.86V107H57.3041V95.3H58.9391V101.24C59.4791 100.38 60.2641 99.95 61.2941 99.95C61.8941 99.95 62.4491 100.095 62.9591 100.385C63.4691 100.665 63.8791 101.075 64.1891 101.615C64.4991 102.145 64.6541 102.79 64.6541 103.55ZM62.9741 103.55C62.9741 102.86 62.7691 102.325 62.3591 101.945C61.9491 101.555 61.4641 101.36 60.9041 101.36C60.5941 101.36 60.2891 101.445 59.9891 101.615C59.6891 101.785 59.4391 102.035 59.2391 102.365C59.0391 102.685 58.9391 103.08 58.9391 103.55C58.9391 104.02 59.0391 104.42 59.2391 104.75C59.4391 105.07 59.6891 105.315 59.9891 105.485C60.2891 105.655 60.5941 105.74 60.9041 105.74C61.4641 105.74 61.9491 105.55 62.3591 105.17C62.7691 104.78 62.9741 104.24 62.9741 103.55ZM66.6925 101.9L66.0325 100.76C66.3525 100.57 66.7575 100.385 67.2475 100.205C67.7375 100.025 68.3025 99.935 68.9425 99.935C69.7925 99.935 70.4875 100.125 71.0275 100.505C71.5775 100.875 71.8525 101.4 71.8525 102.08V107H70.2625V106.055C70.0425 106.425 69.7175 106.7 69.2875 106.88C68.8575 107.06 68.4225 107.15 67.9825 107.15C67.5525 107.15 67.1525 107.065 66.7825 106.895C66.4125 106.725 66.1175 106.475 65.8975 106.145C65.6775 105.815 65.5675 105.415 65.5675 104.945C65.5675 104.275 65.8025 103.745 66.2725 103.355C66.7525 102.955 67.4175 102.755 68.2675 102.755C68.7175 102.755 69.1075 102.805 69.4375 102.905C69.7675 103.005 70.0425 103.115 70.2625 103.235V102.395C70.2625 101.975 70.1225 101.68 69.8425 101.51C69.5725 101.34 69.2225 101.255 68.7925 101.255C68.3025 101.255 67.8675 101.335 67.4875 101.495C67.1075 101.655 66.8425 101.79 66.6925 101.9ZM67.2025 104.855C67.2025 105.195 67.3225 105.46 67.5625 105.65C67.8125 105.84 68.1225 105.935 68.4925 105.935C68.9725 105.935 69.3875 105.79 69.7375 105.5C70.0875 105.2 70.2625 104.79 70.2625 104.27V104.165C69.7825 103.935 69.2475 103.82 68.6575 103.82C68.1475 103.82 67.7775 103.915 67.5475 104.105C67.3175 104.285 67.2025 104.535 67.2025 104.855ZM74.8211 103.55C74.8211 103.98 74.9161 104.365 75.1061 104.705C75.2961 105.035 75.5511 105.295 75.8711 105.485C76.2011 105.665 76.5661 105.755 76.9661 105.755C77.4661 105.755 77.9211 105.645 78.3311 105.425C78.7511 105.205 79.0461 104.925 79.2161 104.585V106.37C78.9761 106.62 78.6511 106.815 78.2411 106.955C77.8311 107.085 77.3811 107.15 76.8911 107.15C76.1811 107.15 75.5411 107 74.9711 106.7C74.4111 106.39 73.9661 105.965 73.6361 105.425C73.3161 104.875 73.1561 104.25 73.1561 103.55C73.1561 102.84 73.3161 102.215 73.6361 101.675C73.9661 101.135 74.4111 100.715 74.9711 100.415C75.5411 100.105 76.1811 99.95 76.8911 99.95C77.3811 99.95 77.8311 100.02 78.2411 100.16C78.6511 100.3 78.9761 100.485 79.2161 100.715V102.515C79.0461 102.175 78.7461 101.895 78.3161 101.675C77.8961 101.455 77.4461 101.345 76.9661 101.345C76.5661 101.345 76.2011 101.44 75.8711 101.63C75.5511 101.82 75.2961 102.08 75.1061 102.41C74.9161 102.74 74.8211 103.12 74.8211 103.55ZM85.0717 100.1H87.0517L84.0817 102.95L87.3517 107H85.3867L82.5367 103.49V107H80.9467V95.3H82.5367V102.53L85.0717 100.1ZM100.176 103.97C100.176 104.66 100.011 105.23 99.6809 105.68C99.3609 106.13 98.9159 106.465 98.3459 106.685C97.7859 106.895 97.1359 107 96.3959 107H93.0509V96.5H96.2159C97.2159 96.5 98.0259 96.72 98.6459 97.16C99.2659 97.59 99.5759 98.25 99.5759 99.14C99.5759 99.67 99.4309 100.12 99.1409 100.49C98.8509 100.85 98.4509 101.125 97.9409 101.315C98.5909 101.485 99.1259 101.79 99.5459 102.23C99.9659 102.66 100.176 103.24 100.176 103.97ZM96.0959 97.955H94.8209V100.715H96.0959C96.5859 100.715 96.9859 100.595 97.2959 100.355C97.6059 100.105 97.7609 99.765 97.7609 99.335C97.7609 98.895 97.6059 98.555 97.2959 98.315C96.9859 98.075 96.5859 97.955 96.0959 97.955ZM94.8209 105.545H96.2909C96.8909 105.545 97.3859 105.4 97.7759 105.11C98.1659 104.81 98.3609 104.37 98.3609 103.79C98.3609 103.22 98.1659 102.795 97.7759 102.515C97.3859 102.235 96.8909 102.095 96.2909 102.095H94.8209V105.545ZM101.385 103.55C101.385 102.84 101.545 102.215 101.865 101.675C102.195 101.135 102.64 100.715 103.2 100.415C103.77 100.105 104.405 99.95 105.105 99.95C105.815 99.95 106.45 100.105 107.01 100.415C107.57 100.715 108.01 101.135 108.33 101.675C108.66 102.215 108.825 102.84 108.825 103.55C108.825 104.25 108.66 104.875 108.33 105.425C108.01 105.965 107.57 106.39 107.01 106.7C106.45 107 105.815 107.15 105.105 107.15C104.405 107.15 103.77 107 103.2 106.7C102.64 106.39 102.195 105.965 101.865 105.425C101.545 104.875 101.385 104.25 101.385 103.55ZM103.05 103.55C103.05 104.19 103.245 104.715 103.635 105.125C104.035 105.525 104.525 105.725 105.105 105.725C105.695 105.725 106.185 105.525 106.575 105.125C106.965 104.715 107.16 104.19 107.16 103.55C107.16 102.9 106.965 102.375 106.575 101.975C106.185 101.575 105.695 101.375 105.105 101.375C104.525 101.375 104.035 101.575 103.635 101.975C103.245 102.375 103.05 102.9 103.05 103.55ZM110.872 101.9L110.212 100.76C110.532 100.57 110.937 100.385 111.427 100.205C111.917 100.025 112.482 99.935 113.122 99.935C113.972 99.935 114.667 100.125 115.207 100.505C115.757 100.875 116.032 101.4 116.032 102.08V107H114.442V106.055C114.222 106.425 113.897 106.7 113.467 106.88C113.037 107.06 112.602 107.15 112.162 107.15C111.732 107.15 111.332 107.065 110.962 106.895C110.592 106.725 110.297 106.475 110.077 106.145C109.857 105.815 109.747 105.415 109.747 104.945C109.747 104.275 109.982 103.745 110.452 103.355C110.932 102.955 111.597 102.755 112.447 102.755C112.897 102.755 113.287 102.805 113.617 102.905C113.947 103.005 114.222 103.115 114.442 103.235V102.395C114.442 101.975 114.302 101.68 114.022 101.51C113.752 101.34 113.402 101.255 112.972 101.255C112.482 101.255 112.047 101.335 111.667 101.495C111.287 101.655 111.022 101.79 110.872 101.9ZM111.382 104.855C111.382 105.195 111.502 105.46 111.742 105.65C111.992 105.84 112.302 105.935 112.672 105.935C113.152 105.935 113.567 105.79 113.917 105.5C114.267 105.2 114.442 104.79 114.442 104.27V104.165C113.962 103.935 113.427 103.82 112.837 103.82C112.327 103.82 111.957 103.915 111.727 104.105C111.497 104.285 111.382 104.535 111.382 104.855ZM121.581 101.84C121.431 101.72 121.291 101.63 121.161 101.57C121.031 101.5 120.866 101.465 120.666 101.465C120.266 101.465 119.976 101.615 119.796 101.915C119.616 102.215 119.526 102.615 119.526 103.115V107H117.921V100.1H119.526V100.94C119.726 100.63 119.966 100.39 120.246 100.22C120.526 100.04 120.811 99.95 121.101 99.95C121.351 99.95 121.586 99.99 121.806 100.07C122.026 100.15 122.216 100.28 122.376 100.46L121.581 101.84ZM122.948 103.55C122.948 102.79 123.103 102.145 123.413 101.615C123.723 101.075 124.133 100.665 124.642 100.385C125.153 100.095 125.708 99.95 126.308 99.95C127.338 99.95 128.123 100.38 128.663 101.24V95.3H130.298V107H128.663V105.86C128.123 106.72 127.338 107.15 126.308 107.15C125.708 107.15 125.153 107.01 124.642 106.73C124.133 106.44 123.723 106.025 123.413 105.485C123.103 104.945 122.948 104.3 122.948 103.55ZM124.628 103.55C124.628 104.24 124.833 104.78 125.243 105.17C125.653 105.55 126.138 105.74 126.698 105.74C127.008 105.74 127.313 105.655 127.613 105.485C127.913 105.315 128.163 105.07 128.363 104.75C128.563 104.42 128.663 104.02 128.663 103.55C128.663 103.08 128.563 102.685 128.363 102.365C128.163 102.035 127.913 101.785 127.613 101.615C127.313 101.445 127.008 101.36 126.698 101.36C126.138 101.36 125.653 101.555 125.243 101.945C124.833 102.325 124.628 102.86 124.628 103.55Z" fill="white"/>
</g>
</g>
</g>
</g>
<defs>
<filter id="filter0_f_0_1" x="-186.203" y="-226.203" width="371.407" height="371.407" filterUnits="userSpaceOnUse" color-interpolation-filters="sRGB">
<feFlood flood-opacity="0" result="BackgroundImageFix"/>
<feBlend mode="normal" in="SourceGraphic" in2="BackgroundImageFix" result="shape"/>
<feGaussianBlur stdDeviation="44.8517" result="effect1_foregroundBlur_0_1"/>
</filter>
<filter id="filter1_f_0_1" x="118.797" y="-48.2033" width="371.407" height="371.407" filterUnits="userSpaceOnUse" color-interpolation-filters="sRGB">
<feFlood flood-opacity="0" result="BackgroundImageFix"/>
<feBlend mode="normal" in="SourceGraphic" in2="BackgroundImageFix" result="shape"/>
<feGaussianBlur stdDeviation="44.8517" result="effect1_foregroundBlur_0_1"/>
</filter>
<radialGradient id="paint0_radial_0_1" cx="0" cy="0" r="1" gradientUnits="userSpaceOnUse" gradientTransform="translate(264.945 -14.2296) rotate(146.823) scale(322.666 301.288)">
<stop stop-color="#E84D70"/>
<stop offset="0.530886" stop-color="#A337F6"/>
<stop offset="1" stop-color="#28A7ED"/>
</radialGradient>
<clipPath id="clip0_0_1">
<rect width="153" height="51" fill="white" transform="translate(24 62)"/>
</clipPath>
</defs>
</svg>
