<svg width="223" height="178" viewBox="0 0 223 178" fill="none" xmlns="http://www.w3.org/2000/svg">
<rect width="223" height="178" rx="10" fill="url(#paint0_radial_0_2641)"/>
<mask id="mask0_0_2641" style="mask-type:luminance" maskUnits="userSpaceOnUse" x="0" y="0" width="223" height="178">
<rect width="223" height="178" rx="10" fill="white"/>
</mask>
<g mask="url(#mask0_0_2641)">
<g opacity="0.765433" filter="url(#filter0_f_0_2641)">
<ellipse cy="-52" rx="84" ry="125" fill="#7AD8FB"/>
</g>
<g filter="url(#filter1_f_0_2641)">
<ellipse cx="266" cy="180" rx="84" ry="125" fill="#FBB57A"/>
</g>
</g>
<g clip-path="url(#clip0_0_2641)">
<path d="M25.48 110H33.98V112.92H28.74V115.66H33.78V118.38H28.74V124H25.48V110ZM41.2341 117.94C41.0741 117.78 40.9007 117.653 40.7141 117.56C40.5407 117.467 40.3207 117.42 40.0541 117.42C39.6141 117.42 39.2541 117.593 38.9741 117.94C38.7074 118.287 38.5741 118.793 38.5741 119.46V124H35.5941V114.8H38.5741V115.96C38.8674 115.533 39.2141 115.2 39.6141 114.96C40.0274 114.707 40.4541 114.58 40.8941 114.58C41.2274 114.58 41.5474 114.653 41.8541 114.8C42.1607 114.933 42.3941 115.113 42.5541 115.34L41.2341 117.94ZM42.7338 119.4C42.7338 118.427 42.9604 117.58 43.4137 116.86C43.8804 116.14 44.5071 115.58 45.2938 115.18C46.0938 114.78 46.9938 114.58 47.9938 114.58C49.0071 114.58 49.9071 114.78 50.6938 115.18C51.4804 115.58 52.1004 116.14 52.5538 116.86C53.0204 117.58 53.2538 118.427 53.2538 119.4C53.2538 120.36 53.0204 121.2 52.5538 121.92C52.1004 122.64 51.4804 123.2 50.6938 123.6C49.9071 124 49.0071 124.2 47.9938 124.2C46.9938 124.2 46.0938 124 45.2938 123.6C44.5071 123.2 43.8804 122.64 43.4137 121.92C42.9604 121.2 42.7338 120.36 42.7338 119.4ZM45.8538 119.4C45.8538 120.107 46.0604 120.667 46.4738 121.08C46.9004 121.493 47.4071 121.7 47.9938 121.7C48.5804 121.7 49.0804 121.493 49.4938 121.08C49.9204 120.667 50.1338 120.107 50.1338 119.4C50.1338 118.693 49.9204 118.133 49.4938 117.72C49.0804 117.293 48.5804 117.08 47.9938 117.08C47.4071 117.08 46.9004 117.293 46.4738 117.72C46.0604 118.133 45.8538 118.693 45.8538 119.4ZM60.7811 118.4C60.7811 117.853 60.6811 117.44 60.4811 117.16C60.2811 116.867 59.9344 116.72 59.4411 116.72C58.9611 116.72 58.5744 116.867 58.2811 117.16C57.9878 117.44 57.8411 117.853 57.8411 118.4V124H54.8011V114.8H57.8411V116.18C58.1078 115.673 58.4678 115.28 58.9211 115C59.3878 114.72 59.9611 114.58 60.6411 114.58C61.7878 114.58 62.6211 114.887 63.1411 115.5C63.6744 116.113 63.9411 116.973 63.9411 118.08V124H60.7811V118.4ZM64.975 114.8H66.595V111.6H69.515V114.8H71.135V117.3H69.515V124H66.595V117.3H64.975V114.8ZM76.8722 124.2C75.7922 124.2 74.8589 124.007 74.0722 123.62C73.2989 123.22 72.6989 122.66 72.2722 121.94C71.8455 121.22 71.6322 120.373 71.6322 119.4C71.6322 117.907 72.0922 116.733 73.0122 115.88C73.9322 115.027 75.1989 114.6 76.8122 114.6C78.3989 114.6 79.6189 115.007 80.4722 115.82C81.3389 116.633 81.7722 117.78 81.7722 119.26C81.7722 119.407 81.7722 119.547 81.7722 119.68C81.7722 119.813 81.7655 119.933 81.7522 120.04H74.7322C74.8122 120.667 75.0322 121.153 75.3922 121.5C75.7522 121.847 76.2255 122.02 76.8122 122.02C77.8789 122.02 78.6389 121.62 79.0922 120.82L81.8122 121.48C80.8389 123.293 79.1922 124.2 76.8722 124.2ZM76.7522 116.62C75.6589 116.62 74.9989 117.2 74.7722 118.36H78.5322C78.4789 117.827 78.2922 117.407 77.9722 117.1C77.6655 116.78 77.2589 116.62 76.7522 116.62ZM89.367 118.4C89.367 117.853 89.267 117.44 89.067 117.16C88.867 116.867 88.5204 116.72 88.027 116.72C87.547 116.72 87.1604 116.867 86.867 117.16C86.5737 117.44 86.427 117.853 86.427 118.4V124H83.387V114.8H86.427V116.18C86.6937 115.673 87.0537 115.28 87.507 115C87.9737 114.72 88.547 114.58 89.227 114.58C90.3737 114.58 91.207 114.887 91.727 115.5C92.2604 116.113 92.527 116.973 92.527 118.08V124H89.367V118.4ZM94.1009 119.4C94.1009 118.36 94.3076 117.487 94.7209 116.78C95.1343 116.06 95.6743 115.52 96.3409 115.16C97.0076 114.787 97.7143 114.6 98.4609 114.6C99.8209 114.6 100.874 115.16 101.621 116.28V108.4H104.641V124H101.621V122.52C100.874 123.64 99.8209 124.2 98.4609 124.2C97.7143 124.2 97.0076 124.02 96.3409 123.66C95.6743 123.287 95.1343 122.74 94.7209 122.02C94.3076 121.3 94.1009 120.427 94.1009 119.4ZM97.2809 119.4C97.2809 120.12 97.4943 120.693 97.9209 121.12C98.3609 121.547 98.8809 121.76 99.4809 121.76C99.8276 121.76 100.161 121.667 100.481 121.48C100.814 121.293 101.088 121.027 101.301 120.68C101.514 120.32 101.621 119.893 101.621 119.4C101.621 118.893 101.514 118.467 101.301 118.12C101.088 117.773 100.814 117.507 100.481 117.32C100.161 117.133 99.8276 117.04 99.4809 117.04C98.8809 117.04 98.3609 117.253 97.9209 117.68C97.4943 118.107 97.2809 118.68 97.2809 119.4ZM116.381 116.88L115.521 124H111.961L114.221 109.3L120.201 117.82L126.161 109.3L128.441 124H124.861L124.021 116.88L120.201 122.7L116.381 116.88ZM134.724 124.2C133.644 124.2 132.71 124.007 131.924 123.62C131.15 123.22 130.55 122.66 130.124 121.94C129.697 121.22 129.484 120.373 129.484 119.4C129.484 117.907 129.944 116.733 130.864 115.88C131.784 115.027 133.05 114.6 134.664 114.6C136.25 114.6 137.47 115.007 138.324 115.82C139.19 116.633 139.624 117.78 139.624 119.26C139.624 119.407 139.624 119.547 139.624 119.68C139.624 119.813 139.617 119.933 139.604 120.04H132.584C132.664 120.667 132.884 121.153 133.244 121.5C133.604 121.847 134.077 122.02 134.664 122.02C135.73 122.02 136.49 121.62 136.944 120.82L139.664 121.48C138.69 123.293 137.044 124.2 134.724 124.2ZM134.604 116.62C133.51 116.62 132.85 117.2 132.624 118.36H136.384C136.33 117.827 136.144 117.407 135.824 117.1C135.517 116.78 135.11 116.62 134.604 116.62ZM147.219 118.4C147.219 117.853 147.119 117.44 146.919 117.16C146.719 116.867 146.372 116.72 145.879 116.72C145.399 116.72 145.012 116.867 144.719 117.16C144.425 117.44 144.279 117.853 144.279 118.4V124H141.239V114.8H144.279V116.18C144.545 115.673 144.905 115.28 145.359 115C145.825 114.72 146.399 114.58 147.079 114.58C148.225 114.58 149.059 114.887 149.579 115.5C150.112 116.113 150.379 116.973 150.379 118.08V124H147.219V118.4ZM151.413 114.8H153.033V111.6H155.953V114.8H157.573V117.3H155.953V124H153.033V117.3H151.413V114.8ZM158.07 119.4C158.07 118.427 158.296 117.58 158.75 116.86C159.216 116.14 159.843 115.58 160.63 115.18C161.43 114.78 162.33 114.58 163.33 114.58C164.343 114.58 165.243 114.78 166.03 115.18C166.816 115.58 167.436 116.14 167.89 116.86C168.356 117.58 168.59 118.427 168.59 119.4C168.59 120.36 168.356 121.2 167.89 121.92C167.436 122.64 166.816 123.2 166.03 123.6C165.243 124 164.343 124.2 163.33 124.2C162.33 124.2 161.43 124 160.63 123.6C159.843 123.2 159.216 122.64 158.75 121.92C158.296 121.2 158.07 120.36 158.07 119.4ZM161.19 119.4C161.19 120.107 161.396 120.667 161.81 121.08C162.236 121.493 162.743 121.7 163.33 121.7C163.916 121.7 164.416 121.493 164.83 121.08C165.256 120.667 165.47 120.107 165.47 119.4C165.47 118.693 165.256 118.133 164.83 117.72C164.416 117.293 163.916 117.08 163.33 117.08C162.743 117.08 162.236 117.293 161.81 117.72C161.396 118.133 161.19 118.693 161.19 119.4ZM175.777 117.94C175.617 117.78 175.444 117.653 175.257 117.56C175.084 117.467 174.864 117.42 174.597 117.42C174.157 117.42 173.797 117.593 173.517 117.94C173.25 118.287 173.117 118.793 173.117 119.46V124H170.137V114.8H173.117V115.96C173.41 115.533 173.757 115.2 174.157 114.96C174.57 114.707 174.997 114.58 175.437 114.58C175.77 114.58 176.09 114.653 176.397 114.8C176.704 114.933 176.937 115.113 177.097 115.34L175.777 117.94Z" fill="white"/>
<path opacity="0.75" d="M25.17 137.5H30.96V139.09H26.91V141.715H30.81V143.26H26.91V148H25.17V137.5ZM35.4032 148.15C34.6932 148.15 34.0732 148 33.5432 147.7C33.0132 147.4 32.6032 146.98 32.3132 146.44C32.0232 145.9 31.8782 145.27 31.8782 144.55C31.8782 143.82 32.0232 143.19 32.3132 142.66C32.6132 142.12 33.0332 141.7 33.5732 141.4C34.1132 141.1 34.7482 140.95 35.4782 140.95C36.5682 140.95 37.4132 141.265 38.0132 141.895C38.6232 142.515 38.9282 143.375 38.9282 144.475C38.9282 144.565 38.9232 144.655 38.9132 144.745C38.9132 144.825 38.9132 144.885 38.9132 144.925H33.5432C33.6032 145.525 33.7982 145.99 34.1282 146.32C34.4682 146.65 34.9182 146.815 35.4782 146.815C36.3582 146.815 37.0182 146.45 37.4582 145.72L38.8682 146.275C38.1482 147.525 36.9932 148.15 35.4032 148.15ZM35.4632 142.18C34.4132 142.18 33.7882 142.72 33.5882 143.8H37.1582C37.1282 143.31 36.9582 142.92 36.6482 142.63C36.3382 142.33 35.9432 142.18 35.4632 142.18ZM43.4745 148.15C42.7645 148.15 42.1445 148 41.6145 147.7C41.0845 147.4 40.6745 146.98 40.3845 146.44C40.0945 145.9 39.9495 145.27 39.9495 144.55C39.9495 143.82 40.0945 143.19 40.3845 142.66C40.6845 142.12 41.1045 141.7 41.6445 141.4C42.1845 141.1 42.8195 140.95 43.5495 140.95C44.6395 140.95 45.4845 141.265 46.0845 141.895C46.6945 142.515 46.9995 143.375 46.9995 144.475C46.9995 144.565 46.9945 144.655 46.9845 144.745C46.9845 144.825 46.9845 144.885 46.9845 144.925H41.6145C41.6745 145.525 41.8695 145.99 42.1995 146.32C42.5395 146.65 42.9895 146.815 43.5495 146.815C44.4295 146.815 45.0895 146.45 45.5295 145.72L46.9395 146.275C46.2195 147.525 45.0645 148.15 43.4745 148.15ZM43.5345 142.18C42.4845 142.18 41.8595 142.72 41.6595 143.8H45.2295C45.1995 143.31 45.0295 142.92 44.7195 142.63C44.4095 142.33 44.0145 142.18 43.5345 142.18ZM48.0207 144.55C48.0207 143.79 48.1757 143.145 48.4857 142.615C48.7957 142.075 49.2057 141.665 49.7157 141.385C50.2257 141.095 50.7807 140.95 51.3807 140.95C52.4107 140.95 53.1957 141.38 53.7357 142.24V136.3H55.3707V148H53.7357V146.86C53.1957 147.72 52.4107 148.15 51.3807 148.15C50.7807 148.15 50.2257 148.01 49.7157 147.73C49.2057 147.44 48.7957 147.025 48.4857 146.485C48.1757 145.945 48.0207 145.3 48.0207 144.55ZM49.7007 144.55C49.7007 145.24 49.9057 145.78 50.3157 146.17C50.7257 146.55 51.2107 146.74 51.7707 146.74C52.0807 146.74 52.3857 146.655 52.6857 146.485C52.9857 146.315 53.2357 146.07 53.4357 145.75C53.6357 145.42 53.7357 145.02 53.7357 144.55C53.7357 144.08 53.6357 143.685 53.4357 143.365C53.2357 143.035 52.9857 142.785 52.6857 142.615C52.3857 142.445 52.0807 142.36 51.7707 142.36C51.2107 142.36 50.7257 142.555 50.3157 142.945C49.9057 143.325 49.7007 143.86 49.7007 144.55ZM64.6541 144.55C64.6541 145.3 64.4991 145.945 64.1891 146.485C63.8791 147.025 63.4691 147.44 62.9591 147.73C62.4491 148.01 61.8941 148.15 61.2941 148.15C60.2641 148.15 59.4791 147.72 58.9391 146.86V148H57.3041V136.3H58.9391V142.24C59.4791 141.38 60.2641 140.95 61.2941 140.95C61.8941 140.95 62.4491 141.095 62.9591 141.385C63.4691 141.665 63.8791 142.075 64.1891 142.615C64.4991 143.145 64.6541 143.79 64.6541 144.55ZM62.9741 144.55C62.9741 143.86 62.7691 143.325 62.3591 142.945C61.9491 142.555 61.4641 142.36 60.9041 142.36C60.5941 142.36 60.2891 142.445 59.9891 142.615C59.6891 142.785 59.4391 143.035 59.2391 143.365C59.0391 143.685 58.9391 144.08 58.9391 144.55C58.9391 145.02 59.0391 145.42 59.2391 145.75C59.4391 146.07 59.6891 146.315 59.9891 146.485C60.2891 146.655 60.5941 146.74 60.9041 146.74C61.4641 146.74 61.9491 146.55 62.3591 146.17C62.7691 145.78 62.9741 145.24 62.9741 144.55ZM66.6925 142.9L66.0325 141.76C66.3525 141.57 66.7575 141.385 67.2475 141.205C67.7375 141.025 68.3025 140.935 68.9425 140.935C69.7925 140.935 70.4875 141.125 71.0275 141.505C71.5775 141.875 71.8525 142.4 71.8525 143.08V148H70.2625V147.055C70.0425 147.425 69.7175 147.7 69.2875 147.88C68.8575 148.06 68.4225 148.15 67.9825 148.15C67.5525 148.15 67.1525 148.065 66.7825 147.895C66.4125 147.725 66.1175 147.475 65.8975 147.145C65.6775 146.815 65.5675 146.415 65.5675 145.945C65.5675 145.275 65.8025 144.745 66.2725 144.355C66.7525 143.955 67.4175 143.755 68.2675 143.755C68.7175 143.755 69.1075 143.805 69.4375 143.905C69.7675 144.005 70.0425 144.115 70.2625 144.235V143.395C70.2625 142.975 70.1225 142.68 69.8425 142.51C69.5725 142.34 69.2225 142.255 68.7925 142.255C68.3025 142.255 67.8675 142.335 67.4875 142.495C67.1075 142.655 66.8425 142.79 66.6925 142.9ZM67.2025 145.855C67.2025 146.195 67.3225 146.46 67.5625 146.65C67.8125 146.84 68.1225 146.935 68.4925 146.935C68.9725 146.935 69.3875 146.79 69.7375 146.5C70.0875 146.2 70.2625 145.79 70.2625 145.27V145.165C69.7825 144.935 69.2475 144.82 68.6575 144.82C68.1475 144.82 67.7775 144.915 67.5475 145.105C67.3175 145.285 67.2025 145.535 67.2025 145.855ZM74.8211 144.55C74.8211 144.98 74.9161 145.365 75.1061 145.705C75.2961 146.035 75.5511 146.295 75.8711 146.485C76.2011 146.665 76.5661 146.755 76.9661 146.755C77.4661 146.755 77.9211 146.645 78.3311 146.425C78.7511 146.205 79.0461 145.925 79.2161 145.585V147.37C78.9761 147.62 78.6511 147.815 78.2411 147.955C77.8311 148.085 77.3811 148.15 76.8911 148.15C76.1811 148.15 75.5411 148 74.9711 147.7C74.4111 147.39 73.9661 146.965 73.6361 146.425C73.3161 145.875 73.1561 145.25 73.1561 144.55C73.1561 143.84 73.3161 143.215 73.6361 142.675C73.9661 142.135 74.4111 141.715 74.9711 141.415C75.5411 141.105 76.1811 140.95 76.8911 140.95C77.3811 140.95 77.8311 141.02 78.2411 141.16C78.6511 141.3 78.9761 141.485 79.2161 141.715V143.515C79.0461 143.175 78.7461 142.895 78.3161 142.675C77.8961 142.455 77.4461 142.345 76.9661 142.345C76.5661 142.345 76.2011 142.44 75.8711 142.63C75.5511 142.82 75.2961 143.08 75.1061 143.41C74.9161 143.74 74.8211 144.12 74.8211 144.55ZM85.0717 141.1H87.0517L84.0817 143.95L87.3517 148H85.3867L82.5367 144.49V148H80.9467V136.3H82.5367V143.53L85.0717 141.1ZM100.176 144.97C100.176 145.66 100.011 146.23 99.6809 146.68C99.3609 147.13 98.9159 147.465 98.3459 147.685C97.7859 147.895 97.1359 148 96.3959 148H93.0509V137.5H96.2159C97.2159 137.5 98.0259 137.72 98.6459 138.16C99.2659 138.59 99.5759 139.25 99.5759 140.14C99.5759 140.67 99.4309 141.12 99.1409 141.49C98.8509 141.85 98.4509 142.125 97.9409 142.315C98.5909 142.485 99.1259 142.79 99.5459 143.23C99.9659 143.66 100.176 144.24 100.176 144.97ZM96.0959 138.955H94.8209V141.715H96.0959C96.5859 141.715 96.9859 141.595 97.2959 141.355C97.6059 141.105 97.7609 140.765 97.7609 140.335C97.7609 139.895 97.6059 139.555 97.2959 139.315C96.9859 139.075 96.5859 138.955 96.0959 138.955ZM94.8209 146.545H96.2909C96.8909 146.545 97.3859 146.4 97.7759 146.11C98.1659 145.81 98.3609 145.37 98.3609 144.79C98.3609 144.22 98.1659 143.795 97.7759 143.515C97.3859 143.235 96.8909 143.095 96.2909 143.095H94.8209V146.545ZM101.385 144.55C101.385 143.84 101.545 143.215 101.865 142.675C102.195 142.135 102.64 141.715 103.2 141.415C103.77 141.105 104.405 140.95 105.105 140.95C105.815 140.95 106.45 141.105 107.01 141.415C107.57 141.715 108.01 142.135 108.33 142.675C108.66 143.215 108.825 143.84 108.825 144.55C108.825 145.25 108.66 145.875 108.33 146.425C108.01 146.965 107.57 147.39 107.01 147.7C106.45 148 105.815 148.15 105.105 148.15C104.405 148.15 103.77 148 103.2 147.7C102.64 147.39 102.195 146.965 101.865 146.425C101.545 145.875 101.385 145.25 101.385 144.55ZM103.05 144.55C103.05 145.19 103.245 145.715 103.635 146.125C104.035 146.525 104.525 146.725 105.105 146.725C105.695 146.725 106.185 146.525 106.575 146.125C106.965 145.715 107.16 145.19 107.16 144.55C107.16 143.9 106.965 143.375 106.575 142.975C106.185 142.575 105.695 142.375 105.105 142.375C104.525 142.375 104.035 142.575 103.635 142.975C103.245 143.375 103.05 143.9 103.05 144.55ZM110.872 142.9L110.212 141.76C110.532 141.57 110.937 141.385 111.427 141.205C111.917 141.025 112.482 140.935 113.122 140.935C113.972 140.935 114.667 141.125 115.207 141.505C115.757 141.875 116.032 142.4 116.032 143.08V148H114.442V147.055C114.222 147.425 113.897 147.7 113.467 147.88C113.037 148.06 112.602 148.15 112.162 148.15C111.732 148.15 111.332 148.065 110.962 147.895C110.592 147.725 110.297 147.475 110.077 147.145C109.857 146.815 109.747 146.415 109.747 145.945C109.747 145.275 109.982 144.745 110.452 144.355C110.932 143.955 111.597 143.755 112.447 143.755C112.897 143.755 113.287 143.805 113.617 143.905C113.947 144.005 114.222 144.115 114.442 144.235V143.395C114.442 142.975 114.302 142.68 114.022 142.51C113.752 142.34 113.402 142.255 112.972 142.255C112.482 142.255 112.047 142.335 111.667 142.495C111.287 142.655 111.022 142.79 110.872 142.9ZM111.382 145.855C111.382 146.195 111.502 146.46 111.742 146.65C111.992 146.84 112.302 146.935 112.672 146.935C113.152 146.935 113.567 146.79 113.917 146.5C114.267 146.2 114.442 145.79 114.442 145.27V145.165C113.962 144.935 113.427 144.82 112.837 144.82C112.327 144.82 111.957 144.915 111.727 145.105C111.497 145.285 111.382 145.535 111.382 145.855ZM121.581 142.84C121.431 142.72 121.291 142.63 121.161 142.57C121.031 142.5 120.866 142.465 120.666 142.465C120.266 142.465 119.976 142.615 119.796 142.915C119.616 143.215 119.526 143.615 119.526 144.115V148H117.921V141.1H119.526V141.94C119.726 141.63 119.966 141.39 120.246 141.22C120.526 141.04 120.811 140.95 121.101 140.95C121.351 140.95 121.586 140.99 121.806 141.07C122.026 141.15 122.216 141.28 122.376 141.46L121.581 142.84ZM122.948 144.55C122.948 143.79 123.103 143.145 123.413 142.615C123.723 142.075 124.133 141.665 124.642 141.385C125.153 141.095 125.708 140.95 126.308 140.95C127.338 140.95 128.123 141.38 128.663 142.24V136.3H130.298V148H128.663V146.86C128.123 147.72 127.338 148.15 126.308 148.15C125.708 148.15 125.153 148.01 124.642 147.73C124.133 147.44 123.723 147.025 123.413 146.485C123.103 145.945 122.948 145.3 122.948 144.55ZM124.628 144.55C124.628 145.24 124.833 145.78 125.243 146.17C125.653 146.55 126.138 146.74 126.698 146.74C127.008 146.74 127.313 146.655 127.613 146.485C127.913 146.315 128.163 146.07 128.363 145.75C128.563 145.42 128.663 145.02 128.663 144.55C128.663 144.08 128.563 143.685 128.363 143.365C128.163 143.035 127.913 142.785 127.613 142.615C127.313 142.445 127.008 142.36 126.698 142.36C126.138 142.36 125.653 142.555 125.243 142.945C124.833 143.325 124.628 143.86 124.628 144.55Z" fill="white"/>
</g>
<defs>
<filter id="filter0_f_0_2641" x="-173.703" y="-266.703" width="347.407" height="429.407" filterUnits="userSpaceOnUse" color-interpolation-filters="sRGB">
<feFlood flood-opacity="0" result="BackgroundImageFix"/>
<feBlend mode="normal" in="SourceGraphic" in2="BackgroundImageFix" result="shape"/>
<feGaussianBlur stdDeviation="44.8517" result="effect1_foregroundBlur_0_2641"/>
</filter>
<filter id="filter1_f_0_2641" x="92.2967" y="-34.7033" width="347.407" height="429.407" filterUnits="userSpaceOnUse" color-interpolation-filters="sRGB">
<feFlood flood-opacity="0" result="BackgroundImageFix"/>
<feBlend mode="normal" in="SourceGraphic" in2="BackgroundImageFix" result="shape"/>
<feGaussianBlur stdDeviation="44.8517" result="effect1_foregroundBlur_0_2641"/>
</filter>
<radialGradient id="paint0_radial_0_2641" cx="0" cy="0" r="1" gradientUnits="userSpaceOnUse" gradientTransform="translate(231.697 -18.4881) rotate(135.832) scale(329.256 335.48)">
<stop stop-color="#E84D70"/>
<stop offset="0.530886" stop-color="#A337F6"/>
<stop offset="1" stop-color="#28A7ED"/>
</radialGradient>
<clipPath id="clip0_0_2641">
<rect width="153" height="51" fill="white" transform="translate(24 103)"/>
</clipPath>
</defs>
</svg>
